# xmcd CD database file
#
# Track frame offsets:
#	150
#	16572
#	44116
#	68354
#	99072
#	119766
#	146655
#	165220
#	185699
#	208775
#	236280
#	264895
#	300807
#
# Disc length: 4493 seconds
#
# Revision: 1
# Processed by: cddbd v1.5.1PL2 Copyright (c) Steve Scherf et al.
# Submitted via: CDex 1.51
#
DISCID=9b118b0d
DTITLE=Keef Harltey Band - No Foolish Nor Wise
DYEAR=1999
DGENRE=Blues
TTITLE0=Sinning For You
TTITLE1=Spanish Fly
TTITLE2=Me And My Woman
TTITLE3=Too Much Thinking
TTITLE4=Not Foolish Not Wise
TTITLE5=Don't You Belong
TTITLE6=Marin County
TTITLE7=Always Thinking Of You
TTITLE8=Don't Sign It
TTITLE9=Colours
TTITLE10=Roundabout
TTITLE11=You Can't Take It With You
TTITLE12=Just A Cry
EXTD=YEAR: 1999
EXTT0=
EXTT1=
EXTT2=
EXTT3=
EXTT4=
EXTT5=
EXTT6=
EXTT7=
EXTT8=
EXTT9=
EXTT10=
EXTT11=
EXTT12=
PLAYORDER=
